<svg width="189" height="163" viewBox="0 0 189 163" fill="none" xmlns="http://www.w3.org/2000/svg">
<path d="M0 29.34C0 25.7391 3.45381 22.82 7.71429 22.82H27C31.2605 22.82 34.7143 25.7391 34.7143 29.34V163H0V29.34Z" fill="url(#paint0_linear_3_2)"/>
<path d="M38.5714 84.76C38.5714 81.159 42.0251 78.24 46.2857 78.24H65.5714C69.832 78.24 73.2857 81.159 73.2857 84.76V163H38.5714V84.76Z" fill="url(#paint1_linear_3_2)"/>
<path d="M77.1429 61.94C77.1429 58.339 80.5965 55.42 84.8571 55.42H104.143C108.403 55.42 111.857 58.339 111.857 61.94V163H77.1429V61.94Z" fill="url(#paint2_linear_3_2)"/>
<path d="M115.714 6.52C115.714 2.91911 119.168 0 123.429 0H142.714C146.975 0 150.429 2.91911 150.429 6.52V163H115.714V6.52Z" fill="url(#paint3_linear_3_2)"/>
<path d="M154.286 45.64C154.286 42.039 157.739 39.12 162 39.12H181.286C185.546 39.12 189 42.039 189 45.64V163H154.286V45.64Z" fill="url(#paint4_linear_3_2)"/>
<defs>
<linearGradient id="paint0_linear_3_2" x1="17.3571" y1="22.82" x2="17.3571" y2="163" gradientUnits="userSpaceOnUse">
<stop stop-color="#EF233C"/>
<stop offset="1" stop-color="#EF233C" stop-opacity="0"/>
</linearGradient>
<linearGradient id="paint1_linear_3_2" x1="55.9286" y1="78.24" x2="55.9286" y2="163" gradientUnits="userSpaceOnUse">
<stop stop-color="#EF233C"/>
<stop offset="1" stop-color="#EF233C" stop-opacity="0"/>
</linearGradient>
<linearGradient id="paint2_linear_3_2" x1="94.5" y1="55.42" x2="94.5" y2="163" gradientUnits="userSpaceOnUse">
<stop stop-color="#EF233C"/>
<stop offset="1" stop-color="#EF233C" stop-opacity="0"/>
</linearGradient>
<linearGradient id="paint3_linear_3_2" x1="133.071" y1="0" x2="133.071" y2="163" gradientUnits="userSpaceOnUse">
<stop stop-color="#EF233C"/>
<stop offset="1" stop-color="#EF233C" stop-opacity="0"/>
</linearGradient>
<linearGradient id="paint4_linear_3_2" x1="171.643" y1="39.12" x2="171.643" y2="163" gradientUnits="userSpaceOnUse">
<stop stop-color="#EF233C"/>
<stop offset="1" stop-color="#EF233C" stop-opacity="0"/>
</linearGradient>
</defs>
</svg>
