<svg width="49" height="51" viewBox="0 0 49 51" fill="none" xmlns="http://www.w3.org/2000/svg">
<path d="M6.375 14.375C6.375 10.6038 6.375 8.71815 7.54657 7.54657C8.71815 6.375 10.6038 6.375 14.375 6.375H36.625C40.3962 6.375 42.2819 6.375 43.4534 7.54657C44.625 8.71815 44.625 10.6038 44.625 14.375V36.625C44.625 40.3962 44.625 42.2819 43.4534 43.4534C42.2819 44.625 40.3962 44.625 36.625 44.625H14.375C10.6038 44.625 8.71815 44.625 7.54657 43.4534C6.375 42.2819 6.375 40.3962 6.375 36.625V14.375Z" fill="#D90429"/>
<ellipse cx="25.5" cy="21.25" rx="8.5" ry="8.5" fill="white"/>
<path fill-rule="evenodd" clip-rule="evenodd" d="M40.3707 44.3125C40.3744 44.4435 40.2739 44.554 40.1432 44.5626C39.1958 44.625 38.0438 44.625 36.625 44.625H14.375C12.9563 44.625 11.8044 44.625 10.857 44.5626C10.7263 44.554 10.6258 44.4435 10.6295 44.3126C10.823 37.4153 17.4067 31.875 25.5001 31.875C33.5935 31.875 40.1772 37.4153 40.3707 44.3125Z" fill="white"/>
</svg>
